<?xml version="1.0" encoding="iso-8859-1"?>
<!-- Generator: Adobe Illustrator 19.0.0, SVG Export Plug-In . SVG Version: 6.00 Build 0)  -->
<svg version="1.1" id="Capa_1" xmlns="http://www.w3.org/2000/svg" xmlns:xlink="http://www.w3.org/1999/xlink" x="0px" y="0px"
	 viewBox="0 0 511.999 511.999" style="enable-background:new 0 0 511.999 511.999;" xml:space="preserve">
<polygon style="fill:#E8AF2A;" points="237.983,180.655 198.191,180.655 207.455,158.383 228.719,158.383 "/>
<path style="fill:#FFD83B;" d="M398.559,230.431c-18.08-0.496-35.856-5.36-51.28-14.8c-22.224-13.632-45.344-22.576-67.648-28.288
	c-59.344-15.2-122.128-9.12-178.304,15.28l-18.944,8.24c-20.192,8.768-41.968,13.296-64,13.296c-5.056,0-9.392,3.6-10.304,8.56
	l-7.456,40c-1.952,10.48,0.736,21.28,7.36,29.616c5.984,7.536,14.688,12.416,24.224,13.6l66.752,8.336h387.04
	c14.368,0,26-11.648,26-26v-32.72C491.903,237.535,436.927,231.471,398.559,230.431z"/>
<circle style="fill:#3F4347;" cx="115.375" cy="311.519" r="42.096"/>
<circle style="fill:#5B5F63;" cx="115.375" cy="311.519" r="23.664"/>
<circle style="fill:#3F4347;" cx="434.399" cy="311.519" r="42.096"/>
<circle style="fill:#5B5F63;" cx="434.399" cy="311.519" r="23.664"/>
<g>
	<path style="fill:#6DAFDF;" d="M323.439,213.023c-14.4-7.008-29.776-12.64-45.984-16.8c-13.808-3.536-27.968-5.888-42.288-7.088
		l13.072,41.392h71.072c5.104,0,9.232-4.128,9.232-9.232C328.543,217.791,326.591,214.543,323.439,213.023z"/>
	<path style="fill:#6DAFDF;" d="M218.911,188.287c-1.808-0.032-3.616-0.08-5.424-0.08c-28.512,0-56.624,4.528-83.888,13.456
		c-6.096,2-10.24,7.68-10.24,14.096c0,8.16,6.624,14.784,14.784,14.784h90.352L218.911,188.287z"/>
</g>
<g>
	<path style="fill:#E14B4B;" d="M511.999,267.055c-11.632,5.648-11.056,23.536,0,28.912V267.055z"/>
	<path style="fill:#E14B4B;" d="M16.047,243.279H6.111l-5.488,29.44c-1.12,6-0.672,12.08,1.12,17.76h14.304V243.279z"/>
</g>
<polygon style="fill:#3F4347;" points="289.055,278.863 289.055,258.671 268.351,258.671 268.351,278.863 248.143,278.863 
	248.143,258.671 227.439,258.671 227.439,278.863 207.247,278.863 207.247,299.567 227.935,299.567 227.935,279.359 
	248.143,279.359 248.143,299.567 268.847,299.567 268.847,279.359 288.927,279.359 288.927,299.567 309.631,299.567 
	309.631,278.863 "/>
<g>
</g>
<g>
</g>
<g>
</g>
<g>
</g>
<g>
</g>
<g>
</g>
<g>
</g>
<g>
</g>
<g>
</g>
<g>
</g>
<g>
</g>
<g>
</g>
<g>
</g>
<g>
</g>
<g>
</g>
</svg>
